<?xml version="1.0" encoding="iso-8859-1"?>
<!-- Generator: Adobe Illustrator 19.0.0, SVG Export Plug-In . SVG Version: 6.00 Build 0)  -->
<svg version="1.1" id="Layer_1" xmlns="http://www.w3.org/2000/svg" xmlns:xlink="http://www.w3.org/1999/xlink" x="0px" y="0px"
	 viewBox="0 0 496.158 496.158" style="enable-background:new 0 0 496.158 496.158;" xml:space="preserve">
<path style="fill:#48A1AF;" d="M248.082,0.003C111.07,0.003,0,111.063,0,248.085c0,137.001,111.07,248.07,248.082,248.07
	c137.006,0,248.076-111.069,248.076-248.07C496.158,111.062,385.088,0.003,248.082,0.003z"/>
<path style="fill:#DDDDDD;" d="M378.356,343.873L202.584,168.757c0,0,12.197-36.222-6.93-55.349s-48.076-15.349-48.076-15.349
	l-9.922,9.923l24.385,24.389l6.275,21.605l-15.277,15.28l-24.316-6.106l-23.121-23.122l-7.174,7.183c0,0-5.305,27.413,15.354,48.071
	s52.623,6.346,52.623,6.346L343.638,378.59c5.875,5.875,20.908,6.327,31.49-4.254S384.605,350.122,378.356,343.873z"/>
<circle style="fill:#E8E8E8;" cx="359.249" cy="359.459" r="12.283"/>
<circle style="fill:#CECECE;" cx="359.249" cy="359.459" r="6.284"/>
<path style="fill:#E8E8E8;" d="M336.916,316.745L216.483,196.312c-5.628-5.628-14.753-5.628-20.382,0
	c-5.628,5.628-5.628,14.753,0,20.381l120.434,120.433c5.628,5.628,14.753,5.628,20.381,0
	C342.545,331.498,342.545,322.373,336.916,316.745z"/>
<path style="fill:#CCCCCC;" d="M379.366,113.689l-12.242-12.242c-3.244-3.244-6.586-5.167-8.512-3.241
	c-19.039,19.04-15.727,28.965-15.727,28.965c-0.172,0.172-0.32,0.359-0.453,0.555c-0.195,0.132-0.383,0.281-0.555,0.454
	L182.372,287.684c-1.455,1.454-1.455,3.813,0,5.269l5.488,5.488c1.455,1.454,3.814,1.454,5.268-0.001l159.506-159.505
	c0.172-0.172,0.32-0.359,0.453-0.555c0.195-0.132,0.383-0.281,0.557-0.454c0,0,10.607,2.632,28.965-15.726
	C384.585,120.224,382.61,116.934,379.366,113.689z"/>
<path style="fill:#E2E2E2;" d="M373.493,107.818l-6.369-6.371c-3.244-3.244-6.586-5.167-8.512-3.241
	c-19.039,19.04-15.727,28.965-15.727,28.965c-0.172,0.172-0.32,0.359-0.453,0.555c-0.195,0.132-0.383,0.281-0.555,0.454
	L182.372,287.684c-1.455,1.454-1.455,3.813,0,5.269l2.701,2.699C185.073,295.652,376.739,111.062,373.493,107.818z"/>
<path style="fill:#BEE1E5;" d="M218.648,281.699l-19.535-19.536c-5.18-5.177-13.627-5.123-18.873,0.123l-79.297,79.296
	c-5.246,5.246-5.301,13.697-0.123,18.875l19.533,19.535c5.18,5.178,13.631,5.124,18.879-0.122l79.295-79.296
	C223.773,295.328,223.826,286.877,218.648,281.699z"/>
<path style="fill:#97BFBF;" d="M185.51,284.284l-4.187-4.187c-3.631-3.631-71.659,64.4-68.032,68.03l4.187,4.187
	C121.11,355.944,189.142,287.914,185.51,284.284z"/>
<path style="fill:#A9D1D3;" d="M185.51,284.284l-4.187-4.187l-68.032,68.03l4.187,4.187
	C121.11,355.944,189.142,287.914,185.51,284.284z"/>
<path style="fill:#97BFBF;" d="M200.082,298.856l-4.187-4.188c-3.631-3.631-71.659,64.4-68.031,68.031l4.186,4.187
	C135.683,370.517,203.715,302.487,200.082,298.856z"/>
<path style="fill:#A9D1D3;" d="M200.135,298.909l-4.187-4.187l-68.032,68.03l4.187,4.187
	C135.735,370.569,203.767,302.539,200.135,298.909z"/>
<g>
</g>
<g>
</g>
<g>
</g>
<g>
</g>
<g>
</g>
<g>
</g>
<g>
</g>
<g>
</g>
<g>
</g>
<g>
</g>
<g>
</g>
<g>
</g>
<g>
</g>
<g>
</g>
<g>
</g>
</svg>
