<?xml version="1.0" encoding="iso-8859-1"?>
<!-- Generator: Adobe Illustrator 19.0.0, SVG Export Plug-In . SVG Version: 6.00 Build 0)  -->
<svg version="1.1" id="Layer_1" xmlns="http://www.w3.org/2000/svg" xmlns:xlink="http://www.w3.org/1999/xlink" x="0px" y="0px"
	 viewBox="0 0 512 512" style="enable-background:new 0 0 512 512;" xml:space="preserve">
<path style="fill:#FA3743;" d="M469.464,67.845c-56.715-56.714-148.667-56.714-205.382,0L256,75.927l-20.016,168.129L256,486.691
	l213.464-213.465C526.179,216.512,526.179,124.56,469.464,67.845z"/>
<path style="fill:#FF6E77;" d="M247.918,67.845c-56.714-56.714-148.667-56.714-205.382,0c-56.715,56.715-56.715,148.667,0,205.381
	L256,486.691V75.927L247.918,67.845z"/>
<polygon style="fill:#8BE3FF;" points="297.212,202.844 297.212,140.22 256,140.22 235.984,244.056 256,347.892 297.212,347.892 
	297.212,285.268 359.836,285.268 359.836,202.844 "/>
<polygon style="fill:#C2EEFF;" points="214.788,140.22 214.788,202.844 152.164,202.844 152.164,285.268 214.788,285.268 
	214.788,347.892 256,347.892 256,140.22 "/>
<path style="fill:#FFB8BD;" d="M55,170.536H25c0-32.114,12.506-62.306,35.214-85.013c22.708-22.708,52.899-35.213,85.013-35.213v30
	c-24.101,0-46.758,9.385-63.8,26.426S55,146.435,55,170.536z"/>
<g>
</g>
<g>
</g>
<g>
</g>
<g>
</g>
<g>
</g>
<g>
</g>
<g>
</g>
<g>
</g>
<g>
</g>
<g>
</g>
<g>
</g>
<g>
</g>
<g>
</g>
<g>
</g>
<g>
</g>
</svg>
